<mxfile host="app.diagrams.net" modified="2024-03-25T20:22:20.763Z" agent="Mozilla/5.0 (Windows NT 10.0; Win64; x64; rv:124.0) Gecko/20100101 Firefox/124.0" etag="G8D59PbFpEEUBhDK_han" version="23.0.0" type="device">
  <diagram name="Page-1" id="D2jS-NvSDsYDTageLER6">
    <mxGraphModel dx="767" dy="510" grid="1" gridSize="10" guides="1" tooltips="1" connect="1" arrows="1" fold="1" page="1" pageScale="1" pageWidth="1700" pageHeight="2200" math="0" shadow="0">
      <root>
        <mxCell id="0" />
        <mxCell id="1" parent="0" />
        <mxCell id="HoHo2z-yK8uKQ-re_OmP-27" style="edgeStyle=orthogonalEdgeStyle;rounded=0;orthogonalLoop=1;jettySize=auto;html=1;exitX=0.5;exitY=1;exitDx=0;exitDy=0;entryX=0.5;entryY=0;entryDx=0;entryDy=0;" parent="1" source="HoHo2z-yK8uKQ-re_OmP-4" target="HoHo2z-yK8uKQ-re_OmP-5" edge="1">
          <mxGeometry relative="1" as="geometry" />
        </mxCell>
        <mxCell id="HoHo2z-yK8uKQ-re_OmP-4" value="Nonce/IV" style="rounded=0;whiteSpace=wrap;html=1;fillColor=#e1d5e7;strokeColor=#9673a6;" parent="1" vertex="1">
          <mxGeometry x="200" y="120" width="80" height="40" as="geometry" />
        </mxCell>
        <mxCell id="HoHo2z-yK8uKQ-re_OmP-13" style="edgeStyle=orthogonalEdgeStyle;rounded=0;orthogonalLoop=1;jettySize=auto;html=1;exitX=0.5;exitY=1;exitDx=0;exitDy=0;entryX=0.5;entryY=0;entryDx=0;entryDy=0;" parent="1" source="HoHo2z-yK8uKQ-re_OmP-5" edge="1" target="HoHo2z-yK8uKQ-re_OmP-29">
          <mxGeometry relative="1" as="geometry">
            <mxPoint x="260" y="280" as="targetPoint" />
          </mxGeometry>
        </mxCell>
        <mxCell id="HoHo2z-yK8uKQ-re_OmP-19" style="edgeStyle=orthogonalEdgeStyle;rounded=0;orthogonalLoop=1;jettySize=auto;html=1;exitX=1;exitY=0.5;exitDx=0;exitDy=0;entryX=0;entryY=0.5;entryDx=0;entryDy=0;" parent="1" source="HoHo2z-yK8uKQ-re_OmP-5" target="HoHo2z-yK8uKQ-re_OmP-6" edge="1">
          <mxGeometry relative="1" as="geometry" />
        </mxCell>
        <mxCell id="HoHo2z-yK8uKQ-re_OmP-5" value="Y&lt;sub&gt;1&lt;/sub&gt;" style="rounded=0;whiteSpace=wrap;html=1;fillColor=none;" parent="1" vertex="1">
          <mxGeometry x="200" y="200" width="80" height="40" as="geometry" />
        </mxCell>
        <mxCell id="HoHo2z-yK8uKQ-re_OmP-20" style="edgeStyle=orthogonalEdgeStyle;rounded=0;orthogonalLoop=1;jettySize=auto;html=1;exitX=1;exitY=0.5;exitDx=0;exitDy=0;entryX=0;entryY=0.5;entryDx=0;entryDy=0;" parent="1" source="HoHo2z-yK8uKQ-re_OmP-6" target="HoHo2z-yK8uKQ-re_OmP-7" edge="1">
          <mxGeometry relative="1" as="geometry" />
        </mxCell>
        <mxCell id="zdUepmZOIQZ7dy83YugO-6" style="edgeStyle=orthogonalEdgeStyle;rounded=0;orthogonalLoop=1;jettySize=auto;html=1;exitX=0.5;exitY=1;exitDx=0;exitDy=0;entryX=0.5;entryY=0;entryDx=0;entryDy=0;" edge="1" parent="1" source="HoHo2z-yK8uKQ-re_OmP-6" target="zdUepmZOIQZ7dy83YugO-4">
          <mxGeometry relative="1" as="geometry" />
        </mxCell>
        <mxCell id="HoHo2z-yK8uKQ-re_OmP-6" value="Y&lt;sub&gt;2&lt;/sub&gt;" style="rounded=0;whiteSpace=wrap;html=1;fillColor=none;" parent="1" vertex="1">
          <mxGeometry x="400" y="200" width="80" height="40" as="geometry" />
        </mxCell>
        <mxCell id="zdUepmZOIQZ7dy83YugO-7" style="edgeStyle=orthogonalEdgeStyle;rounded=0;orthogonalLoop=1;jettySize=auto;html=1;exitX=0.5;exitY=1;exitDx=0;exitDy=0;entryX=0.5;entryY=0;entryDx=0;entryDy=0;" edge="1" parent="1" source="HoHo2z-yK8uKQ-re_OmP-7" target="zdUepmZOIQZ7dy83YugO-5">
          <mxGeometry relative="1" as="geometry" />
        </mxCell>
        <mxCell id="HoHo2z-yK8uKQ-re_OmP-7" value="Y&lt;sub&gt;3&lt;/sub&gt;" style="rounded=0;whiteSpace=wrap;html=1;fillColor=none;" parent="1" vertex="1">
          <mxGeometry x="600" y="200" width="80" height="40" as="geometry" />
        </mxCell>
        <mxCell id="HoHo2z-yK8uKQ-re_OmP-24" value="+1" style="text;html=1;align=center;verticalAlign=middle;resizable=0;points=[];autosize=1;strokeColor=none;fillColor=none;" parent="1" vertex="1">
          <mxGeometry x="320" y="190" width="40" height="30" as="geometry" />
        </mxCell>
        <mxCell id="zdUepmZOIQZ7dy83YugO-8" style="edgeStyle=orthogonalEdgeStyle;rounded=0;orthogonalLoop=1;jettySize=auto;html=1;exitX=0.5;exitY=1;exitDx=0;exitDy=0;entryX=0.5;entryY=0;entryDx=0;entryDy=0;" edge="1" parent="1" source="HoHo2z-yK8uKQ-re_OmP-29" target="HoHo2z-yK8uKQ-re_OmP-42">
          <mxGeometry relative="1" as="geometry" />
        </mxCell>
        <mxCell id="HoHo2z-yK8uKQ-re_OmP-29" value="E&lt;sub&gt;K&lt;/sub&gt;" style="rounded=1;whiteSpace=wrap;html=1;fillColor=#dae8fc;strokeColor=#6c8ebf;" parent="1" vertex="1">
          <mxGeometry x="200" y="280" width="80" height="60" as="geometry" />
        </mxCell>
        <mxCell id="HoHo2z-yK8uKQ-re_OmP-40" value="+1" style="text;html=1;align=center;verticalAlign=middle;resizable=0;points=[];autosize=1;strokeColor=none;fillColor=none;" parent="1" vertex="1">
          <mxGeometry x="520" y="190" width="40" height="30" as="geometry" />
        </mxCell>
        <mxCell id="HoHo2z-yK8uKQ-re_OmP-44" style="edgeStyle=orthogonalEdgeStyle;rounded=0;orthogonalLoop=1;jettySize=auto;html=1;exitX=1;exitY=0.5;exitDx=0;exitDy=0;entryX=0;entryY=0.5;entryDx=0;entryDy=0;" parent="1" source="HoHo2z-yK8uKQ-re_OmP-41" target="HoHo2z-yK8uKQ-re_OmP-42" edge="1">
          <mxGeometry relative="1" as="geometry" />
        </mxCell>
        <mxCell id="HoHo2z-yK8uKQ-re_OmP-41" value="P&lt;sub&gt;1&lt;/sub&gt;" style="rounded=0;whiteSpace=wrap;html=1;fillColor=#d5e8d4;strokeColor=#82b366;" parent="1" vertex="1">
          <mxGeometry x="100" y="380" width="80" height="40" as="geometry" />
        </mxCell>
        <mxCell id="HoHo2z-yK8uKQ-re_OmP-56" style="edgeStyle=orthogonalEdgeStyle;rounded=0;orthogonalLoop=1;jettySize=auto;html=1;exitX=0.5;exitY=1;exitDx=0;exitDy=0;entryX=0.5;entryY=0;entryDx=0;entryDy=0;" parent="1" source="HoHo2z-yK8uKQ-re_OmP-42" target="HoHo2z-yK8uKQ-re_OmP-53" edge="1">
          <mxGeometry relative="1" as="geometry" />
        </mxCell>
        <mxCell id="HoHo2z-yK8uKQ-re_OmP-42" value="" style="shape=orEllipse;perimeter=ellipsePerimeter;whiteSpace=wrap;html=1;backgroundOutline=1;fillColor=none;" parent="1" vertex="1">
          <mxGeometry x="220" y="380" width="40" height="40" as="geometry" />
        </mxCell>
        <mxCell id="HoHo2z-yK8uKQ-re_OmP-61" style="edgeStyle=orthogonalEdgeStyle;rounded=0;orthogonalLoop=1;jettySize=auto;html=1;exitX=1;exitY=0.5;exitDx=0;exitDy=0;entryX=0;entryY=0.5;entryDx=0;entryDy=0;" parent="1" source="HoHo2z-yK8uKQ-re_OmP-46" target="HoHo2z-yK8uKQ-re_OmP-59" edge="1">
          <mxGeometry relative="1" as="geometry" />
        </mxCell>
        <mxCell id="HoHo2z-yK8uKQ-re_OmP-46" value="P&lt;sub&gt;2&lt;/sub&gt;" style="rounded=0;whiteSpace=wrap;html=1;fillColor=#d5e8d4;strokeColor=#82b366;" parent="1" vertex="1">
          <mxGeometry x="300" y="380" width="80" height="40" as="geometry" />
        </mxCell>
        <mxCell id="HoHo2z-yK8uKQ-re_OmP-64" style="edgeStyle=orthogonalEdgeStyle;rounded=0;orthogonalLoop=1;jettySize=auto;html=1;exitX=1;exitY=0.5;exitDx=0;exitDy=0;entryX=0;entryY=0.5;entryDx=0;entryDy=0;" parent="1" source="HoHo2z-yK8uKQ-re_OmP-49" target="HoHo2z-yK8uKQ-re_OmP-60" edge="1">
          <mxGeometry relative="1" as="geometry" />
        </mxCell>
        <mxCell id="HoHo2z-yK8uKQ-re_OmP-49" value="P&lt;sub&gt;3&lt;/sub&gt;" style="rounded=0;whiteSpace=wrap;html=1;fillColor=#d5e8d4;strokeColor=#82b366;" parent="1" vertex="1">
          <mxGeometry x="500" y="380" width="80" height="40" as="geometry" />
        </mxCell>
        <mxCell id="HoHo2z-yK8uKQ-re_OmP-53" value="C&lt;sub&gt;1&lt;/sub&gt;" style="rounded=0;whiteSpace=wrap;html=1;fillColor=#ffe6cc;strokeColor=#d79b00;" parent="1" vertex="1">
          <mxGeometry x="200" y="460" width="80" height="40" as="geometry" />
        </mxCell>
        <mxCell id="zdUepmZOIQZ7dy83YugO-11" style="edgeStyle=orthogonalEdgeStyle;rounded=0;orthogonalLoop=1;jettySize=auto;html=1;exitX=0.5;exitY=1;exitDx=0;exitDy=0;entryX=0.5;entryY=0;entryDx=0;entryDy=0;" edge="1" parent="1" source="HoHo2z-yK8uKQ-re_OmP-59" target="zdUepmZOIQZ7dy83YugO-1">
          <mxGeometry relative="1" as="geometry" />
        </mxCell>
        <mxCell id="HoHo2z-yK8uKQ-re_OmP-59" value="" style="shape=orEllipse;perimeter=ellipsePerimeter;whiteSpace=wrap;html=1;backgroundOutline=1;fillColor=none;" parent="1" vertex="1">
          <mxGeometry x="420" y="380" width="40" height="40" as="geometry" />
        </mxCell>
        <mxCell id="zdUepmZOIQZ7dy83YugO-12" style="edgeStyle=orthogonalEdgeStyle;rounded=0;orthogonalLoop=1;jettySize=auto;html=1;exitX=0.5;exitY=1;exitDx=0;exitDy=0;entryX=0.5;entryY=0;entryDx=0;entryDy=0;" edge="1" parent="1" source="HoHo2z-yK8uKQ-re_OmP-60" target="zdUepmZOIQZ7dy83YugO-2">
          <mxGeometry relative="1" as="geometry" />
        </mxCell>
        <mxCell id="HoHo2z-yK8uKQ-re_OmP-60" value="" style="shape=orEllipse;perimeter=ellipsePerimeter;whiteSpace=wrap;html=1;backgroundOutline=1;fillColor=none;" parent="1" vertex="1">
          <mxGeometry x="620" y="380" width="40" height="40" as="geometry" />
        </mxCell>
        <mxCell id="zdUepmZOIQZ7dy83YugO-1" value="C&lt;sub&gt;2&lt;/sub&gt;" style="rounded=0;whiteSpace=wrap;html=1;fillColor=#ffe6cc;strokeColor=#d79b00;" vertex="1" parent="1">
          <mxGeometry x="400" y="460" width="80" height="40" as="geometry" />
        </mxCell>
        <mxCell id="zdUepmZOIQZ7dy83YugO-2" value="C&lt;sub&gt;3&lt;/sub&gt;" style="rounded=0;whiteSpace=wrap;html=1;fillColor=#ffe6cc;strokeColor=#d79b00;" vertex="1" parent="1">
          <mxGeometry x="600" y="460" width="80" height="40" as="geometry" />
        </mxCell>
        <mxCell id="zdUepmZOIQZ7dy83YugO-9" style="edgeStyle=orthogonalEdgeStyle;rounded=0;orthogonalLoop=1;jettySize=auto;html=1;exitX=0.5;exitY=1;exitDx=0;exitDy=0;entryX=0.5;entryY=0;entryDx=0;entryDy=0;" edge="1" parent="1" source="zdUepmZOIQZ7dy83YugO-4" target="HoHo2z-yK8uKQ-re_OmP-59">
          <mxGeometry relative="1" as="geometry" />
        </mxCell>
        <mxCell id="zdUepmZOIQZ7dy83YugO-4" value="E&lt;sub&gt;K&lt;/sub&gt;" style="rounded=1;whiteSpace=wrap;html=1;fillColor=#dae8fc;strokeColor=#6c8ebf;" vertex="1" parent="1">
          <mxGeometry x="400" y="280" width="80" height="60" as="geometry" />
        </mxCell>
        <mxCell id="zdUepmZOIQZ7dy83YugO-10" style="edgeStyle=orthogonalEdgeStyle;rounded=0;orthogonalLoop=1;jettySize=auto;html=1;exitX=0.5;exitY=1;exitDx=0;exitDy=0;entryX=0.5;entryY=0;entryDx=0;entryDy=0;" edge="1" parent="1" source="zdUepmZOIQZ7dy83YugO-5" target="HoHo2z-yK8uKQ-re_OmP-60">
          <mxGeometry relative="1" as="geometry" />
        </mxCell>
        <mxCell id="zdUepmZOIQZ7dy83YugO-5" value="E&lt;sub&gt;K&lt;/sub&gt;" style="rounded=1;whiteSpace=wrap;html=1;fillColor=#dae8fc;strokeColor=#6c8ebf;" vertex="1" parent="1">
          <mxGeometry x="600" y="280" width="80" height="60" as="geometry" />
        </mxCell>
      </root>
    </mxGraphModel>
  </diagram>
</mxfile>
